<?xml version="1.0" standalone="yes"?>
<svg xmlns="http://www.w3.org/2000/svg" width="598" height="600">
<path style="fill:none; stroke:none;" d="M0 0L0 600L598 600L598 0L0 0z"/>
<path style="fill:#1E293B; stroke:none;" d="M451 15L451 287L451 361C451 368.824 453.901 383.938 449.972 390.815C446.869 396.246 437.257 399.565 432 402.579C416.638 411.386 401.379 420.371 386 429.15C364.6 441.367 343.37 453.883 322 466.15C315.212 470.046 303.907 479.87 296 480.083C291.951 480.193 287.369 476.353 284 474.421L259 460C230.318 443.516 201.46 427.262 173 410.397C164.536 405.381 146.16 399.137 141.028 390.671C138.053 385.765 140 375.591 140 370L140 317L140 245C140 236.46 137.215 222.075 140.603 214.21C142.23 210.434 147.66 208.493 151 206.579L177 191.579C204.036 176.079 231.225 160.745 258 144.799C267.916 138.894 283.561 125.629 295 124.208C302.405 123.288 314.75 133.949 321 137.576C342.644 150.137 365.508 167.449 389 176L389 97C389 89.5775 392.003 73.7366 387.972 67.3896C385.822 64.0034 380.367 62.0822 377 60.1497C367.991 54.9785 358.985 49.79 350 44.5756C337.341 37.2288 324.698 29.8586 312 22.5787C307.546 20.0252 301.273 14.6362 296 14.4993C291.293 14.377 285.923 18.911 282 21.1505C271.623 27.074 261.362 33.2016 251 39.1497C210.957 62.1348 170.72 84.8586 131 108.397C111.145 120.162 91.0099 131.5 71 143C64.4122 146.786 51.3667 151.347 47.0278 157.634C45.0483 160.503 46 165.699 46 169L46 195L46 296L46 405L46 434C46 437.626 44.9593 443.282 47.0278 446.471C49.8483 450.819 57.612 453.478 62 456C74.0107 462.903 86.0979 469.711 98 476.799C143.619 503.968 190.077 529.772 236 556.424C249.987 564.542 263.941 572.726 278 580.719C282.961 583.539 290.096 589.636 296 589.562C301.977 589.486 309.002 583.325 314 580.424C327.634 572.512 341.31 564.665 355 556.85C400.133 531.085 444.865 504.612 490 478.85C503.357 471.225 516.786 463.669 530 455.799C534.335 453.218 542.059 450.587 544.972 446.366C547.33 442.949 546 435.963 546 432L546 394L546 252L546 122L546 85C546 80.5084 547.309 73.528 545.397 69.3788C542.553 63.2084 528.742 58.3 523 55C506.65 45.6031 490.394 36.0397 474 26.7191C466.814 22.6337 459.212 16.4819 451 15z"/>
<path style="fill:#2563EB; stroke:none;" d="M294 212.948C287.857 214.315 281.435 219.627 276 222.719C262.613 230.334 249.376 238.214 236 245.85C230.936 248.74 220.02 252.601 217.603 258.21C215.231 263.717 217 273.062 217 279L217 326C217 331.614 214.891 342.636 218.028 347.471C220.536 351.338 227.107 353.627 231 355.85C240.691 361.381 250.401 366.915 260 372.603C268.275 377.507 276.705 382.142 285 387.011C288.58 389.112 292.583 392.385 297 391.458C303.569 390.078 310.229 384.445 316 381.15L356 358.15C360.683 355.461 372.062 351.319 373.682 345.79C375.462 339.715 374 331.314 374 325L374 280C374 274.048 376.2 262.544 372.972 257.379C370.5 253.423 363.925 251.09 360 248.85C349.981 243.13 339.978 237.367 330 231.576C321.678 226.746 313.347 221.938 305 217.15C301.758 215.29 297.976 212.062 294 212.948z"/>
</svg>
