<svg width="100" height="101" viewBox="0 0 100 101" fill="none" xmlns="http://www.w3.org/2000/svg">
<path d="M99.5243 40.4995C99.9974 39.3138 100.121 38.0089 99.8797 36.7502C99.6383 35.4914 99.0426 34.3353 98.1681 33.428L66.9185 0.98999L58.0811 10.1635L78.6621 31.5272H0.00072407V44.5024H93.7494C94.9854 44.5027 96.1937 44.1226 97.2217 43.4101C98.2496 42.6976 99.0509 41.6847 99.5243 40.4995ZM0.475719 61.4804C0.00257036 62.6662 -0.121123 63.971 0.120292 65.2298C0.361707 66.4885 0.957382 67.6447 1.83195 68.5519L33.0815 100.99L41.9189 91.8165L21.3379 70.4528H99.9993V57.4776H6.25063C5.01443 57.4764 3.80571 57.8562 2.77764 58.5688C1.74957 59.2814 0.948421 60.2947 0.475719 61.4804Z" fill="#1E293B"/>
</svg>
