<svg width="100" height="101" viewBox="0 0 100 101" fill="none" xmlns="http://www.w3.org/2000/svg">
<path fill-rule="evenodd" clip-rule="evenodd" d="M0 25.99C0 12.1829 11.1929 0.98999 25 0.98999H75C88.807 0.98999 100 12.1829 100 25.99V75.99C100 89.797 88.807 100.99 75 100.99H25C11.1929 100.99 0 89.797 0 75.99V25.99ZM25 10.99C16.7157 10.99 10 17.7057 10 25.99V75.99C10 84.2745 16.7157 90.99 25 90.99H75C83.2845 90.99 90 84.2745 90 75.99V25.99C90 17.7057 83.2845 10.99 75 10.99H25ZM25 75.99C25 73.2285 27.2386 70.99 30 70.99H70C72.7615 70.99 75 73.2285 75 75.99C75 78.7515 72.7615 80.99 70 80.99H30C27.2386 80.99 25 78.7515 25 75.99ZM33.5355 27.4544C31.5828 25.5018 28.417 25.5019 26.4644 27.4545C24.5118 29.4072 24.5119 32.573 26.4646 34.5256L37.9294 45.99L26.4646 57.4545C24.5119 59.407 24.5118 62.573 26.4644 64.5255C28.417 66.478 31.5828 66.478 33.5355 64.5255L48.536 49.5255C49.474 48.588 50.0005 47.316 50.0005 45.99C50.0005 44.664 49.474 43.392 48.536 42.4545L33.5355 27.4544Z" fill="#1E293B"/>
</svg>
