<svg width="100" height="101" viewBox="0 0 100 101" fill="none" xmlns="http://www.w3.org/2000/svg">
<path d="M96.8618 22.8518L78.1382 4.12816C76.1289 2.11884 73.4037 0.990005 70.5621 0.98999H10.7143C4.79688 0.98999 0 5.78687 0 11.7043V90.2757C0 96.1931 4.79688 100.99 10.7143 100.99H89.2857C95.2031 100.99 100 96.1931 100 90.2757V30.4279C100 27.5863 98.8712 24.8611 96.8618 22.8518ZM60.7143 11.7043V29.5614H32.1429V11.7043H60.7143ZM87.9464 90.2757H12.0536C11.6984 90.2757 11.3577 90.1346 11.1066 89.8834C10.8554 89.6323 10.7143 89.2916 10.7143 88.9364V13.0436C10.7143 12.6884 10.8554 12.3477 11.1066 12.0965C11.3577 11.8454 11.6984 11.7043 12.0536 11.7043H21.4286V34.9186C21.4286 37.8773 23.827 40.2757 26.7857 40.2757H66.0714C69.0301 40.2757 71.4286 37.8773 71.4286 34.9186V12.5708L88.8935 30.0357C89.0179 30.1601 89.1165 30.3078 89.1838 30.4703C89.2511 30.6328 89.2857 30.807 89.2857 30.9828V88.9364C89.2857 89.2916 89.1446 89.6323 88.8934 89.8834C88.6423 90.1346 88.3016 90.2757 87.9464 90.2757ZM50 45.6328C39.169 45.6328 30.3571 54.4447 30.3571 65.2757C30.3571 76.1067 39.169 84.9186 50 84.9186C60.831 84.9186 69.6429 76.1067 69.6429 65.2757C69.6429 54.4447 60.831 45.6328 50 45.6328ZM50 74.2043C45.0768 74.2043 41.0714 70.1989 41.0714 65.2757C41.0714 60.3525 45.0768 56.3471 50 56.3471C54.9232 56.3471 58.9286 60.3525 58.9286 65.2757C58.9286 70.1989 54.9232 74.2043 50 74.2043Z" fill="#1E293B"/>
</svg>
